<?xml version="1.0" encoding="utf-8"?>
<!-- Generator: Adobe Illustrator 16.0.0, SVG Export Plug-In . SVG Version: 6.00 Build 0)  -->
<!DOCTYPE svg PUBLIC "-//W3C//DTD SVG 1.1//EN" "http://www.w3.org/Graphics/SVG/1.1/DTD/svg11.dtd">
<svg version="1.1" id="Camada_1" xmlns="http://www.w3.org/2000/svg" xmlns:xlink="http://www.w3.org/1999/xlink" x="0px" y="0px"
	 width="155px" height="65px" viewBox="0 0 155 65" enable-background="new 0 0 155 65" xml:space="preserve">
<g>
	<path fill="#396CAD" stroke="#396CAD" d="M142.375,40.382c-0.154-5.647-4.77-10.42-10.074-10.42c-0.462,0-0.923,0.037-1.377,0.111
		c-0.251-0.342-0.578-0.753-1.046-1.072c-1.881-1.799-4.392-3.166-7.329-3.998c-1.441-9.382-8.804-17.231-17.585-18.538
		c-1.083-0.186-2.188-0.279-3.288-0.279c-0.166,0-0.333,0.001-0.455,0.005c-8.195,0.028-15.947,5.722-19.136,13.8
		c-0.528-0.114-1.069-0.172-1.614-0.172c-3.339,0-6.454,2.101-7.93,5.15h4.791c0.887-0.785,1.998-1.274,3.139-1.274
		c0.661,0,1.282,0.163,1.844,0.483l2.14,1.223l0.685-2.367c2.164-7.489,8.934-12.942,16.139-12.967
		c1.012-0.03,2.029,0.046,3.078,0.225c7.527,1.12,13.764,8.188,14.502,16.439l0.127,1.417l1.391,0.304
		c2.018,0.44,4.857,1.4,6.943,3.464l0.213,0.211l0.148,0.076c0.071,0.083,0.135,0.182,0.204,0.275
		c0.411,0.564,1.177,1.616,2.569,1.616c0.304,0,0.604-0.054,0.896-0.16c0.312-0.063,0.631-0.099,0.951-0.099
		c3.206,0,6.104,3.108,6.204,6.733c0.14,1.969-0.573,3.945-1.953,5.427c-1.213,1.301-2.769,2.001-4.288,1.959
		c-0.195-0.044-0.394-0.065-0.59-0.065c-1.58,0-2.313,1.285-2.662,1.904c-0.058,0.102-0.109,0.209-0.175,0.301l-0.267,0.278
		c-2.42,3.088-6.096,4.86-10.08,4.86c-3.68,0-7.163-1.555-9.557-4.264l-1.232-1.396l-1.444,1.179
		c-1.739,1.42-3.954,2.201-6.237,2.201c-1.668,0-3.313-0.415-4.759-1.201l-1.345-0.731l-1.021,1.14
		c-1.029,1.146-2.195,1.995-3.356,2.42c-0.75,0.31-1.55,0.465-2.374,0.465c-3.238,0-6.391-2.417-7.496-5.747l-0.725-2.176
		l-2.024,1.074c-1.939,1.029-4.156,1.574-6.412,1.574c-2.275,0-4.398-0.555-6.235-1.598h-6.028c0.158,0.18,0.316,0.359,0.486,0.528
		c2.975,3.188,7.157,4.944,11.777,4.944c2.176,0,4.329-0.398,6.327-1.162c2.077,3.873,6.077,6.437,10.33,6.437
		c1.333,0,2.627-0.254,3.775-0.728c1.533-0.56,2.822-1.496,3.809-2.4c4.02,1.648,8.839,1.255,12.512-1.007
		c3.031,2.766,7.036,4.323,11.23,4.323c5.121,0,9.854-2.256,13.017-6.199c0.368-0.346,0.615-0.746,0.806-1.076
		c2.551,0.043,5.148-1.125,7.076-3.193C141.498,46.375,142.585,43.335,142.375,40.382z"/>
</g>
<path fill="#11406E" d="M27.95,42.219l-0.05,0.641H15.836c-0.214-0.209-0.414-0.422-0.601-0.641h6.389
	c0.713,0.217,1.509,0.327,2.388,0.327c0.918,0,1.896-0.11,2.935-0.327H27.95L27.95,42.219z M93.008,42.631
	c0.512,1.4,0.77,2.223,0.77,2.457h-4.695c0-0.54-0.387-2.001-1.164-4.377c0.448,0.089,0.877,0.191,1.293,0.307h6.926
	c0.281,0.203,0.557,0.416,0.827,0.643h-5.88c0.43,0.177,0.841,0.369,1.23,0.578l-0.035-0.02h4.787l-0.211,0.641
	c0.72-2.172,1.438-4.449,2.158-6.838c0.609-2.043,1.155-3.931,1.633-5.66c-1.41,0-3.373,0.079-5.887,0.215l0.994-2.9h15.413
	l-0.972,2.885c-1.961-0.131-3.83-0.2-5.607-0.2c-0.529,1.69-1.107,3.582-1.725,5.66c-0.973,3.225-1.826,6.275-2.581,9.156h-4.21
	H96.07c-0.17-0.189-0.348-0.375-0.527-0.556h0.721l0.19-0.562h-1.509c-0.25-0.223-0.508-0.436-0.778-0.641h2.501l0.188-0.563H93.37
	C93.252,42.781,93.131,42.706,93.008,42.631L93.008,42.631z M27.854,43.421l-0.05,0.642H17.443c-0.34-0.194-0.66-0.408-0.961-0.642
	H27.854L27.854,43.421z M27.76,44.623l-0.028,0.368c-1.4,0.297-2.771,0.45-4.124,0.45c-1.922,0-3.583-0.272-4.981-0.818H27.76
	L27.76,44.623z M14.794,41.66c-0.151-0.21-0.289-0.424-0.416-0.643h5.087c0.267,0.242,0.558,0.457,0.871,0.643H14.794L14.794,41.66z
	 M14.081,40.457c-0.1-0.209-0.191-0.423-0.271-0.641h4.628c0.146,0.22,0.309,0.434,0.486,0.641H14.081L14.081,40.457z
	 M13.625,39.255c-0.061-0.21-0.112-0.424-0.155-0.642h4.353c0.082,0.22,0.178,0.434,0.286,0.642H13.625L13.625,39.255z
	 M13.378,38.055c-0.026-0.211-0.046-0.425-0.059-0.642h4.195c0.032,0.218,0.075,0.431,0.129,0.642H13.378L13.378,38.055z
	 M13.307,36.852c0.002-0.215,0.01-0.43,0.026-0.64h4.114c-0.002,0.077-0.003,0.153-0.003,0.233c0,0.137,0.004,0.271,0.013,0.406
	H13.307L13.307,36.852z M13.393,35.65c0.029-0.215,0.067-0.43,0.113-0.639h4.08c-0.043,0.207-0.076,0.422-0.099,0.639H13.393
	L13.393,35.65z M13.647,34.45c0.064-0.218,0.135-0.431,0.215-0.642h4.105c-0.092,0.209-0.17,0.42-0.238,0.642H13.647L13.647,34.45z
	 M14.1,33.248c0.102-0.217,0.214-0.43,0.335-0.64h4.25c-0.159,0.206-0.303,0.419-0.432,0.64H14.1L14.1,33.248z M14.789,32.046
	c0.147-0.218,0.307-0.431,0.478-0.64h4.785c-0.32,0.181-0.607,0.396-0.867,0.64H14.789L14.789,32.046z M15.757,30.845
	c0.112-0.12,0.228-0.238,0.349-0.355c0.1-0.098,0.203-0.193,0.308-0.286h10.403l-0.109,0.641H25.31
	c-0.675-0.122-1.336-0.183-1.976-0.183c-0.653,0-1.25,0.061-1.793,0.183H15.757L15.757,30.845z M17.116,29.644
	c0.328-0.235,0.672-0.45,1.033-0.641h8.871l-0.108,0.641H17.116L17.116,29.644z M19.427,28.442c1.273-0.453,2.719-0.68,4.337-0.68
	c1.208,0,2.337,0.117,3.403,0.366l-0.053,0.314H19.427L19.427,28.442z M81.652,37.65l0.092-0.236h-3.473l-0.277,0.641h11.227
	C86.87,37.579,84.342,37.484,81.652,37.65L81.652,37.65z M91.377,38.613H77.75l-0.275,0.643h15.591
	C92.516,39.014,91.952,38.799,91.377,38.613L91.377,38.613z M94.221,39.816H77.234l-0.271,0.641h3.898l0.035-0.098
	c2.008-0.133,3.793-0.092,5.388,0.098h9.03C94.954,40.229,94.59,40.014,94.221,39.816L94.221,39.816z M80.67,41.018
	c-0.074,0.224-0.146,0.436-0.214,0.643h-4l0.269-0.643H80.67L80.67,41.018z M80.275,42.219c-0.07,0.227-0.139,0.439-0.198,0.641
	H75.96c0.081-0.199,0.168-0.414,0.262-0.641H80.275L80.275,42.219z M79.914,43.421c-0.066,0.233-0.123,0.447-0.169,0.642h-4.26
	c0.071-0.188,0.154-0.403,0.249-0.642H79.914L79.914,43.421z M79.625,44.623c-0.033,0.191-0.05,0.35-0.05,0.466h-4.42
	c0-0.063,0.042-0.222,0.125-0.466H79.625L79.625,44.623z M78.516,36.852l0.069-0.162l0.206-0.478H82.2l-0.242,0.64H78.516
	L78.516,36.852z M79.034,35.65l0.274-0.639h3.342l-0.238,0.639H79.034L79.034,35.65z M79.548,34.45l0.272-0.642h3.277l-0.236,0.642
	H79.548L79.548,34.45z M80.057,33.248l0.271-0.64h3.208l-0.23,0.64H80.057L80.057,33.248z M80.557,32.046l0.264-0.64h3.132
	c-0.063,0.188-0.136,0.402-0.22,0.64H80.557L80.557,32.046z M81.045,30.845h3.085c0.077-0.261,0.117-0.429,0.117-0.502h0.233
	c0,0.055,0.051,0.232,0.136,0.502h3.876l-0.229-0.641h-6.967C81.219,30.405,81.135,30.618,81.045,30.845L81.045,30.845z
	 M81.512,29.644h6.553c-0.08-0.235-0.152-0.45-0.217-0.641H81.74C81.676,29.192,81.598,29.406,81.512,29.644L81.512,29.644z
	 M81.921,28.442c0.06-0.211,0.091-0.36,0.091-0.446h5.555c0,0.065,0.037,0.219,0.104,0.446H81.921L81.921,28.442z M88.699,31.406
	h-3.897c0.066,0.193,0.142,0.408,0.224,0.64h3.91L88.699,31.406L88.699,31.406z M89.145,32.607h-3.926l0.227,0.64h3.941
	L89.145,32.607L89.145,32.607z M89.598,33.809h-3.949l0.23,0.642h3.965L89.598,33.809L89.598,33.809z M90.061,35.012h-3.978
	l0.229,0.639h3.992L90.061,35.012L90.061,35.012z M90.527,36.212h-0.176l0.19,0.038L90.527,36.212L90.527,36.212z M78.814,27.996
	l-0.016,0.446H63.742l0.019-0.446H78.814L78.814,27.996z M78.777,29.003l-0.023,0.641H63.691l0.026-0.641H78.777L78.777,29.003z
	 M78.732,30.205l-0.021,0.607c-1.952-0.122-3.806-0.194-5.54-0.194l-0.001,0.228h-3.835l-0.003-0.228
	c-1.383,0-3.281,0.072-5.688,0.212l0.026-0.625H78.732L78.732,30.205z M73.163,31.406l-0.005,0.64h-3.804l-0.009-0.64H73.163
	L73.163,31.406z M73.154,32.607l-0.004,0.64h-3.781l-0.007-0.64H73.154L73.154,32.607z M73.146,33.809l-0.002,0.642h-3.768
	l-0.004-0.642H73.146L73.146,33.809z M73.143,35.012l-0.001,0.639H69.38l-0.002-0.639H73.143L73.143,35.012z M73.142,36.212
	l0.001,0.64H69.38v-0.64H73.142L73.142,36.212z M73.145,37.414l0.003,0.641h-3.776l0.006-0.641H73.145L73.145,37.414z
	 M73.154,38.613l0.005,0.643h-3.8l0.008-0.643H73.154L73.154,38.613z M73.167,39.816l0.009,0.641H69.34l0.01-0.641H73.167
	L73.167,39.816z M73.186,41.018l0.013,0.643h-3.887l0.015-0.643H73.186L73.186,41.018z M73.212,42.219l0.016,0.641h-3.951
	l0.019-0.641H73.212L73.212,42.219z M73.245,43.421l0.019,0.642h-4.029l0.024-0.642H73.245L73.245,43.421z M73.284,44.623
	l0.016,0.466h-4.109l0.021-0.466H73.284L73.284,44.623z M62.798,45.088h-3.619c0-0.078-0.066-0.234-0.199-0.466h3.796L62.798,45.088
	L62.798,45.088z M58.626,44.063c-0.125-0.19-0.273-0.403-0.442-0.642h4.542l0.026,0.642H58.626L58.626,44.063z M57.78,42.859
	c-0.147-0.2-0.305-0.414-0.475-0.641h5.381l0.021,0.641H57.78L57.78,42.859z M56.882,41.66c-0.155-0.207-0.318-0.419-0.489-0.643
	h6.261l0.017,0.643H56.882L56.882,41.66z M55.96,40.457l-0.498-0.641h3.715c0.114,0.238,0.202,0.451,0.265,0.641H55.96L55.96,40.457
	z M55.025,39.255c-0.17-0.218-0.335-0.431-0.496-0.642h4.001c0.132,0.228,0.254,0.441,0.363,0.642H55.025L55.025,39.255z
	 M54.104,38.055c-0.165-0.22-0.326-0.433-0.479-0.642h4.154c0.145,0.222,0.282,0.437,0.409,0.642H54.104L54.104,38.055z
	 M53.213,36.852c-0.159-0.22-0.313-0.433-0.46-0.64h4.213c0.152,0.22,0.299,0.435,0.438,0.64H53.213L53.213,36.852z M52.363,35.65
	c-0.152-0.221-0.294-0.435-0.43-0.639h4.18c0.159,0.217,0.313,0.432,0.459,0.639H52.363L52.363,35.65z M51.572,34.45
	c-0.141-0.224-0.271-0.438-0.39-0.642h4.047c0.163,0.219,0.322,0.433,0.475,0.642H51.572L51.572,34.45z M50.869,33.248
	c-0.123-0.229-0.227-0.443-0.315-0.64h3.784l0.473,0.64H50.869L50.869,33.248z M50.337,32.046l-0.019-0.06h-0.234l0.007,0.06h-2.878
	l-0.016-0.64h6.272c0.146,0.204,0.299,0.417,0.459,0.64H50.337L50.337,32.046z M50.161,32.607c0.025,0.216,0.05,0.429,0.073,0.64
	h-2.996l-0.012-0.64H50.161L50.161,32.607z M50.288,33.809c0.02,0.217,0.039,0.43,0.056,0.642h-3.092l-0.007-0.642H50.288
	L50.288,33.809z M50.384,35.012c0.014,0.215,0.025,0.43,0.035,0.639H47.26l-0.003-0.639H50.384L50.384,35.012z M50.44,36.212
	c0.006,0.216,0.011,0.431,0.013,0.64h-3.194l0.001-0.64H50.44L50.44,36.212z M50.456,37.414l0.003,0.641h-3.208l0.005-0.641H50.456
	L50.456,37.414z M50.463,38.613l0.01,0.643h-3.238l0.01-0.643H50.463L50.463,38.613z M50.484,39.816l0.013,0.641h-3.285l0.013-0.641
	H50.484L50.484,39.816z M50.512,41.018l0.019,0.643h-3.348l0.018-0.643H50.512L50.512,41.018z M50.547,42.219l0.021,0.641h-3.425
	l0.022-0.641H50.547L50.547,42.219z M50.589,43.421l0.024,0.642h-3.516l0.025-0.642H50.589L50.589,43.421z M50.635,44.623
	l0.02,0.466H47.05l0.021-0.466H50.635L50.635,44.623z M47.179,30.845l-0.022-0.641h5.475c0.136,0.2,0.282,0.414,0.441,0.641H47.179
	L47.179,30.845z M47.133,29.644l-0.03-0.641h4.757c0.113,0.189,0.245,0.403,0.398,0.641H47.133L47.133,29.644z M47.075,28.442
	l-0.024-0.446h4.359c0,0.092,0.048,0.242,0.146,0.446H47.075L47.075,28.442z M59.685,40.457c-0.028-0.215-0.052-0.43-0.076-0.641
	h3.021l0.011,0.641H59.685L59.685,40.457z M59.549,39.255c-0.022-0.217-0.042-0.431-0.06-0.642h3.123l0.008,0.642H59.549
	L59.549,39.255z M59.446,38.055c-0.016-0.218-0.03-0.432-0.043-0.642h3.2l0.002,0.642H59.446L59.446,38.055z M59.375,36.852
	c-0.009-0.217-0.017-0.431-0.022-0.64H62.6v0.64H59.375L59.375,36.852z M59.341,35.65l-0.002-0.356l-0.001-0.282h3.263l-0.002,0.641
	h-3.258V35.65z M59.336,34.45l-0.008-0.642h3.283l-0.006,0.642H59.336L59.336,34.45z M59.321,33.248l-0.011-0.64h3.319l-0.009,0.64
	H59.321L59.321,33.248z M59.296,32.046l-0.019-0.64h3.378l-0.015,0.64H59.296L59.296,32.046z M59.26,30.845l-0.024-0.641h3.458
	l-0.023,0.641H59.26L59.26,30.845z M59.213,29.644l-0.03-0.641h3.562l-0.029,0.641H59.213L59.213,29.644z M59.156,28.442
	l-0.024-0.446h3.666l-0.025,0.446H59.156L59.156,28.442z M46.045,36.23c0,0.209-0.007,0.418-0.018,0.621H41.98
	c0.002-0.08,0.004-0.166,0.004-0.248c0-0.133-0.003-0.264-0.009-0.392h4.07V36.23L46.045,36.23z M45.981,37.414
	c-0.024,0.217-0.054,0.432-0.091,0.641h-4.033c0.038-0.207,0.068-0.422,0.089-0.641H45.981L45.981,37.414z M45.773,38.613
	c-0.053,0.219-0.114,0.433-0.181,0.643h-4.074c0.081-0.208,0.152-0.421,0.213-0.643H45.773L45.773,38.613z M45.391,39.816
	c-0.087,0.218-0.184,0.432-0.288,0.641h-4.228c0.143-0.205,0.272-0.418,0.388-0.641H45.391L45.391,39.816z M44.794,41.018
	c-0.131,0.219-0.271,0.433-0.424,0.643h-4.61c0.233-0.188,0.458-0.402,0.672-0.643H44.794L44.794,41.018z M43.928,42.219
	c-0.188,0.221-0.388,0.434-0.6,0.641H29.681c-0.205-0.207-0.396-0.42-0.573-0.641h5.572c0.66,0.303,1.382,0.454,2.17,0.454
	c0.734,0,1.411-0.151,2.031-0.454H43.928L43.928,42.219z M42.701,43.421c-0.282,0.231-0.573,0.445-0.875,0.642H31.144
	c-0.294-0.195-0.58-0.408-0.855-0.642H42.701L42.701,43.421z M40.828,44.623c-1.304,0.626-2.761,0.938-4.374,0.938
	c-1.603,0-3.044-0.313-4.327-0.938H40.828L40.828,44.623z M28.695,41.66c-0.139-0.21-0.267-0.422-0.385-0.643h4.723
	c0.227,0.239,0.463,0.453,0.711,0.643H28.695L28.695,41.66z M28.037,40.457c-0.091-0.209-0.171-0.422-0.245-0.641h4.366
	c0.12,0.224,0.255,0.438,0.405,0.641H28.037L28.037,40.457z M27.625,39.255c-0.053-0.21-0.101-0.424-0.138-0.642h4.182
	c0.063,0.222,0.137,0.436,0.222,0.642H27.625L27.625,39.255z M27.407,38.055c-0.023-0.211-0.041-0.425-0.05-0.642h4.083
	c0.022,0.219,0.054,0.433,0.094,0.642H27.407L27.407,38.055z M27.346,36.852c0.001-0.217,0.01-0.431,0.024-0.64h4.029
	c-0.004,0.099-0.004,0.201-0.004,0.304c0,0.113,0.003,0.227,0.006,0.336H27.346L27.346,36.852z M27.421,35.65
	c0.026-0.215,0.058-0.43,0.098-0.639h4.013c-0.04,0.207-0.072,0.422-0.095,0.639H27.421L27.421,35.65z M27.643,34.45
	c0.055-0.218,0.117-0.431,0.187-0.642h4.056c-0.083,0.207-0.157,0.42-0.219,0.642H27.643L27.643,34.45z M28.039,33.248
	c0.091-0.219,0.189-0.431,0.298-0.64h4.213c-0.148,0.204-0.281,0.419-0.399,0.64H28.039L28.039,33.248z M28.653,32.046
	c0.135-0.219,0.28-0.432,0.436-0.64h4.609c-0.241,0.186-0.472,0.4-0.692,0.64H28.653L28.653,32.046z M29.542,30.845
	c0.176-0.202,0.365-0.399,0.562-0.59l0.053-0.05H43.61c0.21,0.207,0.405,0.42,0.587,0.641h-5.608
	c-0.626-0.266-1.31-0.399-2.049-0.399c-0.692,0-1.33,0.133-1.917,0.399L29.542,30.845L29.542,30.845z M30.805,29.644
	c0.293-0.234,0.598-0.447,0.911-0.641H42.1c0.307,0.193,0.601,0.407,0.886,0.641H30.805L30.805,29.644z M32.772,28.442
	c1.251-0.56,2.639-0.84,4.165-0.84c1.518,0,2.894,0.279,4.125,0.84H32.772L32.772,28.442z M44.623,31.406
	c0.144,0.208,0.277,0.421,0.399,0.64H40.31c-0.234-0.24-0.478-0.454-0.733-0.64H44.623L44.623,31.406z M45.305,32.607
	c0.095,0.208,0.18,0.422,0.257,0.64h-4.361c-0.123-0.224-0.261-0.437-0.412-0.64H45.305L45.305,32.607z M45.737,33.809
	c0.057,0.209,0.106,0.422,0.146,0.642h-4.186c-0.064-0.222-0.139-0.435-0.225-0.642H45.737L45.737,33.809z M45.971,35.012
	c0.026,0.209,0.044,0.424,0.057,0.639h-4.095c-0.025-0.219-0.057-0.432-0.099-0.639H45.971z"/>
</svg>
